# Blender v2.79 (sub 0) OBJ File: ''
# www.blender.org
mtllib SuggestionBox_Emoji.mtl
o Cylinder_Cylinder.001
v -1.266194 1.623625 -2.587735
v 1.266194 1.623625 -2.587735
v -1.266194 1.616652 -2.582162
v 1.266194 1.616652 -2.582163
v -1.266194 1.610008 -2.576201
v 1.266194 1.610008 -2.576201
v -1.266194 1.603715 -2.569870
v 1.266194 1.603715 -2.569870
v -1.266194 1.597794 -2.563189
v 1.266194 1.597794 -2.563189
v -1.266194 1.592264 -2.556182
v 1.266194 1.592264 -2.556182
v -1.266194 1.587143 -2.548870
v 1.266194 1.587143 -2.548870
v -1.266194 1.582448 -2.541278
v 1.266194 1.582448 -2.541278
v -1.266194 1.578194 -2.533431
v 1.266194 1.578194 -2.533431
v -1.266194 1.574395 -2.525353
v 1.266194 1.574395 -2.525353
v -1.266194 1.571063 -2.517071
v 1.266194 1.571063 -2.517071
v -1.266194 1.568210 -2.508613
v 1.266194 1.568210 -2.508613
v -1.266194 1.565844 -2.500006
v 1.266194 1.565844 -2.500006
v -1.266194 1.563973 -2.491277
v 1.266194 1.563973 -2.491277
v -1.266194 1.562603 -2.482457
v 1.266194 1.562603 -2.482457
v -1.266194 1.561740 -2.473572
v 1.266194 1.561740 -2.473572
v -1.266194 1.561385 -2.464653
v 1.266194 1.561385 -2.464653
v -1.266194 1.561540 -2.455727
v 1.266194 1.561539 -2.455727
v -1.266194 1.562204 -2.446826
v 1.266194 1.562203 -2.446826
v -1.266194 1.563375 -2.437976
v 1.266194 1.563375 -2.437976
v -1.266194 1.565049 -2.429208
v 1.266194 1.565049 -2.429208
v -1.266194 1.567221 -2.420550
v 1.266194 1.567221 -2.420550
v -1.266194 1.569884 -2.412030
v 1.266194 1.569884 -2.412030
v -1.266194 1.573030 -2.403676
v 1.266194 1.573029 -2.403676
v -1.266194 1.576646 -2.395514
v 1.266194 1.576646 -2.395514
v -1.266194 1.580723 -2.387573
v 1.266194 1.580723 -2.387573
v -1.266194 1.585247 -2.379878
v 1.266194 1.585247 -2.379878
v -1.266194 1.590202 -2.372453
v 1.266194 1.590202 -2.372453
v -1.266194 1.595574 -2.365323
v 1.266194 1.595574 -2.365323
v -1.266194 1.601343 -2.358512
v 1.266194 1.601343 -2.358512
v -1.266194 1.607492 -2.352041
v 1.266194 1.607492 -2.352041
v -1.266194 1.614001 -2.345932
v 1.266194 1.614001 -2.345932
v -1.266194 1.620847 -2.340204
v 1.266194 1.620847 -2.340204
v -1.266194 1.628010 -2.334876
v 1.266194 1.628009 -2.334876
v -1.266194 1.635464 -2.329966
v 1.266194 1.635464 -2.329966
v -1.266194 1.643188 -2.325490
v 1.266194 1.643187 -2.325490
v -1.266194 1.651153 -2.321462
v 1.266194 1.651153 -2.321462
v -1.266194 1.659336 -2.317895
v 1.266194 1.659336 -2.317895
v -1.266194 1.667710 -2.314801
v 1.266194 1.667710 -2.314801
v -1.266194 1.676246 -2.312190
v 1.266194 1.676246 -2.312190
v -1.266194 1.684917 -2.310071
v 1.266194 1.684917 -2.310071
v -1.266194 1.693695 -2.308450
v 1.266194 1.693695 -2.308450
v -1.266194 1.702552 -2.307333
v 1.266194 1.702552 -2.307333
v -1.266194 1.711457 -2.306723
v 1.266194 1.711457 -2.306723
v -1.266194 1.720384 -2.306623
v 1.266194 1.720383 -2.306623
v -1.266194 1.729301 -2.307033
v 1.266194 1.729300 -2.307033
v -1.266194 1.738180 -2.307950
v 1.266194 1.738180 -2.307950
v -1.266194 1.746992 -2.309374
v 1.266194 1.746992 -2.309374
v -1.266194 1.755709 -2.311298
v 1.266194 1.755709 -2.311298
v -1.266194 1.764302 -2.313717
v 1.266194 1.764302 -2.313717
v -1.266194 1.772742 -2.316622
v 1.266194 1.772742 -2.316622
v -1.266194 1.781003 -2.320004
v 1.266194 1.781003 -2.320004
v -1.266194 1.789057 -2.323853
v 1.266194 1.789057 -2.323853
v -1.266194 1.796879 -2.328155
v 1.266194 1.796879 -2.328155
v -1.266194 1.804442 -2.332896
v 1.266194 1.804442 -2.332896
v -1.266194 1.811722 -2.338062
v 1.266194 1.811722 -2.338062
v -1.266194 1.818696 -2.343634
v 1.266194 1.818696 -2.343634
v -1.266194 1.825340 -2.349596
v 1.266194 1.825340 -2.349596
v -1.266194 1.831632 -2.355927
v 1.266194 1.831632 -2.355927
v -1.266194 1.837553 -2.362608
v 1.266194 1.837553 -2.362608
v -1.266194 1.843083 -2.369615
v 1.266194 1.843083 -2.369615
v -1.266194 1.848204 -2.376927
v 1.266194 1.848204 -2.376927
v -1.266194 1.633719 -2.575104
v 1.266194 1.633719 -2.575104
v -1.266194 1.627102 -2.569825
v 1.266194 1.627102 -2.569825
v -1.266194 1.621146 -2.564481
v 1.266194 1.621146 -2.564481
v -1.266194 1.615504 -2.558804
v 1.266194 1.615504 -2.558804
v -1.266194 1.610195 -2.552814
v 1.266194 1.610195 -2.552814
v -1.266194 1.605237 -2.546532
v 1.266194 1.605237 -2.546532
v -1.266194 1.600646 -2.539977
v 1.266194 1.600646 -2.539977
v -1.266194 1.596437 -2.533170
v 1.266194 1.596437 -2.533170
v -1.266194 1.592623 -2.526134
v 1.266194 1.592622 -2.526134
v -1.266194 1.589217 -2.518892
v 1.266194 1.589217 -2.518892
v -1.266194 1.586230 -2.511467
v 1.266194 1.586230 -2.511467
v -1.266194 1.583671 -2.503884
v 1.266194 1.583671 -2.503884
v -1.266194 1.581550 -2.496167
v 1.266194 1.581550 -2.496167
v -1.266194 1.579872 -2.488342
v 1.266194 1.579872 -2.488342
v -1.266194 1.578645 -2.480433
v 1.266194 1.578645 -2.480433
v -1.266194 1.577871 -2.472468
v 1.266194 1.577871 -2.472468
v -1.266194 1.577552 -2.464471
v 1.266194 1.577552 -2.464471
v -1.266194 1.577691 -2.456469
v 1.266194 1.577691 -2.456469
v -1.266194 1.578286 -2.448488
v 1.266194 1.578286 -2.448488
v -1.266194 1.579336 -2.440554
v 1.266194 1.579336 -2.440554
v -1.266194 1.580837 -2.432693
v 1.266194 1.580837 -2.432693
v -1.266194 1.582785 -2.424931
v 1.266194 1.582785 -2.424931
v -1.266194 1.585173 -2.417292
v 1.266194 1.585172 -2.417292
v -1.266194 1.587992 -2.409802
v 1.266194 1.587992 -2.409802
v -1.266194 1.591235 -2.402485
v 1.266194 1.591235 -2.402485
v -1.266194 1.594890 -2.395365
v 1.266194 1.594890 -2.395365
v -1.266194 1.598946 -2.388466
v 1.266194 1.598946 -2.388466
v -1.266194 1.603389 -2.381809
v 1.266194 1.603389 -2.381809
v -1.266194 1.608204 -2.375417
v 1.266194 1.608204 -2.375417
v -1.266194 1.613377 -2.369310
v 1.266194 1.613377 -2.369311
v -1.266194 1.618890 -2.363509
v 1.266194 1.618890 -2.363509
v -1.266194 1.624725 -2.358032
v 1.266194 1.624725 -2.358032
v -1.266194 1.630864 -2.352896
v 1.266194 1.630864 -2.352896
v -1.266194 1.637285 -2.348120
v 1.266194 1.637285 -2.348120
v -1.266194 1.643969 -2.343718
v 1.266194 1.643969 -2.343718
v -1.266194 1.650893 -2.339704
v 1.266194 1.650893 -2.339704
v -1.266194 1.658035 -2.336092
v 1.266194 1.658035 -2.336092
v -1.266194 1.665371 -2.332895
v 1.266194 1.665371 -2.332895
v -1.266194 1.672878 -2.330121
v 1.266194 1.672878 -2.330121
v -1.266194 1.680532 -2.327780
v 1.266194 1.680532 -2.327780
v -1.266194 1.688306 -2.325880
v 1.266194 1.688306 -2.325880
v -1.266194 1.696176 -2.324427
v 1.266194 1.696176 -2.324427
v -1.266194 1.704116 -2.323426
v 1.266194 1.704116 -2.323426
v -1.266194 1.712101 -2.322879
v 1.266194 1.712101 -2.322879
v -1.266194 1.720103 -2.322789
v 1.266194 1.720103 -2.322789
v -1.266194 1.728098 -2.323156
v 1.266194 1.728098 -2.323156
v -1.266194 1.736058 -2.323979
v 1.266194 1.736058 -2.323979
v -1.266194 1.743959 -2.325256
v 1.266194 1.743959 -2.325256
v -1.266194 1.751774 -2.326981
v 1.266194 1.751774 -2.326981
v -1.266194 1.759478 -2.329149
v 1.266194 1.759478 -2.329149
v -1.266194 1.767045 -2.331754
v 1.266194 1.767045 -2.331754
v -1.266194 1.774452 -2.334786
v 1.266194 1.774452 -2.334786
v -1.266194 1.781673 -2.338237
v 1.266194 1.781673 -2.338237
v -1.266194 1.788685 -2.342093
v 1.266194 1.788685 -2.342093
v -1.266194 1.795466 -2.346344
v 1.266194 1.795466 -2.346344
v -1.266194 1.801993 -2.350976
v 1.266194 1.801993 -2.350976
v -1.266194 1.808245 -2.355972
v 1.266194 1.808245 -2.355972
v -1.266194 1.814202 -2.361316
v 1.266194 1.814202 -2.361316
v -1.266194 1.819844 -2.366993
v 1.266194 1.819843 -2.366993
v -1.266194 1.825153 -2.372983
v 1.266194 1.825152 -2.372983
v -1.266194 1.830111 -2.379265
v 1.266194 1.830110 -2.379265
v -1.266194 1.834961 -2.386202
v 1.266194 1.834961 -2.386202
vn -0.0000 -0.6243 -0.7812
vn -0.0000 -0.6679 -0.7443
vn -0.0000 -0.7093 -0.7049
vn -0.0000 -0.7483 -0.6633
vn -0.0000 -0.7850 -0.6195
vn -0.0000 -0.8191 -0.5737
vn -0.0000 -0.8505 -0.5259
vn -0.0000 -0.8791 -0.4766
vn 0.0000 -0.9049 -0.4256
vn -0.0000 -0.9277 -0.3732
vn -0.0000 -0.9475 -0.3197
vn -0.0000 -0.9642 -0.2651
vn -0.0000 -0.9778 -0.2096
vn -0.0000 -0.9882 -0.1534
vn -0.0000 -0.9953 -0.0967
vn 0.0000 -0.9992 -0.0398
vn -0.0000 -0.9998 0.0173
vn -0.0000 -0.9972 0.0744
vn -0.0000 -0.9914 0.1312
vn -0.0000 -0.9822 0.1876
vn -0.0000 -0.9699 0.2434
vn -0.0000 -0.9545 0.2983
vn -0.0000 -0.9359 0.3523
vn -0.0000 -0.9142 0.4052
vn -0.0000 -0.8896 0.4567
vn -0.0000 -0.8621 0.5068
vn -0.0000 -0.8318 0.5551
vn 0.0000 -0.7987 0.6017
vn -0.0000 -0.7630 0.6463
vn -0.0000 -0.7249 0.6888
vn -0.0000 -0.6844 0.7291
vn 0.0000 -0.6417 0.7670
vn -0.0000 -0.5968 0.8024
vn -0.0000 -0.5500 0.8351
vn -0.0000 -0.5015 0.8652
vn -0.0000 -0.4513 0.8924
vn -0.0000 -0.3996 0.9167
vn 0.0000 -0.3466 0.9380
vn -0.0000 -0.2925 0.9563
vn -0.0000 -0.2374 0.9714
vn -0.0000 -0.1816 0.9834
vn -0.0000 -0.1251 0.9921
vn -0.0000 -0.0683 0.9977
vn -0.0000 -0.0112 0.9999
vn -0.0000 0.0459 0.9989
vn -0.0000 0.1028 0.9947
vn -0.0000 0.1595 0.9872
vn -0.0000 0.2156 0.9765
vn 0.0000 0.2709 0.9626
vn 0.0000 0.3255 0.9456
vn 0.0000 0.3789 0.9254
vn 0.0000 0.4311 0.9023
vn 0.0000 0.4819 0.8762
vn 0.0000 0.5312 0.8473
vn 0.0000 0.5787 0.8156
vn -0.0000 0.6243 0.7812
vn 0.0000 0.6679 0.7443
vn 0.0000 0.7093 0.7049
vn 0.0000 0.7484 0.6633
vn 0.0000 0.7850 0.6195
vn 0.0000 0.8191 0.5737
vn 0.0000 0.6237 0.7817
vn 0.0000 0.8191 0.5736
vn 0.0000 0.8505 0.5260
vn 0.0000 0.8791 0.4766
vn 0.0000 0.9049 0.4256
vn 0.0000 0.9277 0.3733
vn 0.0000 0.9475 0.3197
vn 0.0000 0.9642 0.2650
vn 0.0000 0.9778 0.2096
vn 0.0000 0.9882 0.1534
vn 0.0000 0.9953 0.0968
vn 0.0000 0.9992 0.0398
vn 0.0000 0.9998 -0.0174
vn 0.0000 0.9972 -0.0744
vn 0.0000 0.9914 -0.1312
vn 0.0000 0.9822 -0.1876
vn 0.0000 0.9699 -0.2434
vn 0.0000 0.9545 -0.2983
vn 0.0000 0.9359 -0.3524
vn 0.0000 0.9142 -0.4052
vn 0.0000 0.8896 -0.4567
vn 0.0000 0.8621 -0.5067
vn 0.0000 0.8318 -0.5551
vn 0.0000 0.7987 -0.6017
vn 0.0000 0.7631 -0.6463
vn 0.0000 0.7249 -0.6888
vn -0.0000 0.6844 -0.7291
vn 0.0000 0.6417 -0.7670
vn 0.0000 0.5968 -0.8024
vn 0.0000 0.5500 -0.8351
vn -0.0000 0.5015 -0.8652
vn 0.0000 0.4513 -0.8924
vn 0.0000 0.3996 -0.9167
vn 0.0000 0.3466 -0.9380
vn 0.0000 0.2925 -0.9563
vn -0.0000 0.2374 -0.9714
vn -0.0000 0.1815 -0.9834
vn 0.0000 0.1251 -0.9921
vn 0.0000 0.0683 -0.9977
vn 0.0000 0.0112 -0.9999
vn 0.0000 -0.0459 -0.9989
vn 0.0000 -0.1028 -0.9947
vn -0.0000 -0.1595 -0.9872
vn 0.0000 -0.2156 -0.9765
vn 0.0000 -0.2709 -0.9626
vn 0.0000 -0.3255 -0.9455
vn -0.0000 -0.3789 -0.9255
vn -0.0000 -0.4312 -0.9023
vn 0.0000 -0.4819 -0.8762
vn 0.0000 -0.5312 -0.8473
vn -0.0000 -0.5787 -0.8156
vn 0.0000 -0.6678 -0.7443
vn -0.0000 -0.7484 -0.6633
vn 0.0000 -0.8196 -0.5730
vn 0.0000 0.7812 -0.6243
vn -1.0000 -0.0000 0.0000
vn 1.0000 -0.0000 0.0000
vn 0.0000 0.5737 -0.8191
usemtl Material.006
s off
f 1//1 2//1 4//1 3//1
f 3//2 4//2 6//2 5//2
f 5//3 6//3 8//3 7//3
f 7//4 8//4 10//4 9//4
f 9//5 10//5 12//5 11//5
f 11//6 12//6 14//6 13//6
f 13//7 14//7 16//7 15//7
f 15//8 16//8 18//8 17//8
f 17//9 18//9 20//9 19//9
f 19//10 20//10 22//10 21//10
f 21//11 22//11 24//11 23//11
f 23//12 24//12 26//12 25//12
f 25//13 26//13 28//13 27//13
f 27//14 28//14 30//14 29//14
f 29//15 30//15 32//15 31//15
f 31//16 32//16 34//16 33//16
f 33//17 34//17 36//17 35//17
f 35//18 36//18 38//18 37//18
f 37//19 38//19 40//19 39//19
f 39//20 40//20 42//20 41//20
f 41//21 42//21 44//21 43//21
f 43//22 44//22 46//22 45//22
f 45//23 46//23 48//23 47//23
f 47//24 48//24 50//24 49//24
f 49//25 50//25 52//25 51//25
f 51//26 52//26 54//26 53//26
f 53//27 54//27 56//27 55//27
f 55//28 56//28 58//28 57//28
f 57//29 58//29 60//29 59//29
f 59//30 60//30 62//30 61//30
f 61//31 62//31 64//31 63//31
f 63//32 64//32 66//32 65//32
f 65//33 66//33 68//33 67//33
f 67//34 68//34 70//34 69//34
f 69//35 70//35 72//35 71//35
f 71//36 72//36 74//36 73//36
f 73//37 74//37 76//37 75//37
f 75//38 76//38 78//38 77//38
f 77//39 78//39 80//39 79//39
f 79//40 80//40 82//40 81//40
f 81//41 82//41 84//41 83//41
f 83//42 84//42 86//42 85//42
f 85//43 86//43 88//43 87//43
f 87//44 88//44 90//44 89//44
f 89//45 90//45 92//45 91//45
f 91//46 92//46 94//46 93//46
f 93//47 94//47 96//47 95//47
f 95//48 96//48 98//48 97//48
f 97//49 98//49 100//49 99//49
f 99//50 100//50 102//50 101//50
f 101//51 102//51 104//51 103//51
f 103//52 104//52 106//52 105//52
f 105//53 106//53 108//53 107//53
f 107//54 108//54 110//54 109//54
f 109//55 110//55 112//55 111//55
f 111//56 112//56 114//56 113//56
f 113//57 114//57 116//57 115//57
f 115//58 116//58 118//58 117//58
f 117//59 118//59 120//59 119//59
f 119//60 120//60 122//60 121//60
f 121//61 122//61 124//61 123//61
f 125//62 127//62 128//62 126//62
f 127//57 129//57 130//57 128//57
f 129//58 131//58 132//58 130//58
f 131//59 133//59 134//59 132//59
f 133//60 135//60 136//60 134//60
f 135//63 137//63 138//63 136//63
f 137//64 139//64 140//64 138//64
f 139//65 141//65 142//65 140//65
f 141//66 143//66 144//66 142//66
f 143//67 145//67 146//67 144//67
f 145//68 147//68 148//68 146//68
f 147//69 149//69 150//69 148//69
f 149//70 151//70 152//70 150//70
f 151//71 153//71 154//71 152//71
f 153//72 155//72 156//72 154//72
f 155//73 157//73 158//73 156//73
f 157//74 159//74 160//74 158//74
f 159//75 161//75 162//75 160//75
f 161//76 163//76 164//76 162//76
f 163//77 165//77 166//77 164//77
f 165//78 167//78 168//78 166//78
f 167//79 169//79 170//79 168//79
f 169//80 171//80 172//80 170//80
f 171//81 173//81 174//81 172//81
f 173//82 175//82 176//82 174//82
f 175//83 177//83 178//83 176//83
f 177//84 179//84 180//84 178//84
f 179//85 181//85 182//85 180//85
f 181//86 183//86 184//86 182//86
f 183//87 185//87 186//87 184//87
f 185//88 187//88 188//88 186//88
f 187//89 189//89 190//89 188//89
f 189//90 191//90 192//90 190//90
f 191//91 193//91 194//91 192//91
f 193//92 195//92 196//92 194//92
f 195//93 197//93 198//93 196//93
f 197//94 199//94 200//94 198//94
f 199//95 201//95 202//95 200//95
f 201//96 203//96 204//96 202//96
f 203//97 205//97 206//97 204//97
f 205//98 207//98 208//98 206//98
f 207//99 209//99 210//99 208//99
f 209//100 211//100 212//100 210//100
f 211//101 213//101 214//101 212//101
f 213//102 215//102 216//102 214//102
f 215//103 217//103 218//103 216//103
f 217//104 219//104 220//104 218//104
f 219//105 221//105 222//105 220//105
f 221//106 223//106 224//106 222//106
f 223//107 225//107 226//107 224//107
f 225//108 227//108 228//108 226//108
f 227//109 229//109 230//109 228//109
f 229//110 231//110 232//110 230//110
f 231//111 233//111 234//111 232//111
f 233//112 235//112 236//112 234//112
f 235//1 237//1 238//1 236//1
f 237//113 239//113 240//113 238//113
f 239//3 241//3 242//3 240//3
f 241//114 243//114 244//114 242//114
f 243//5 245//5 246//5 244//5
f 245//115 247//115 248//115 246//115
f 2//116 1//116 125//116 126//116
f 1//117 3//117 127//117 125//117
f 4//118 2//118 126//118 128//118
f 3//117 5//117 129//117 127//117
f 6//118 4//118 128//118 130//118
f 5//117 7//117 131//117 129//117
f 8//118 6//118 130//118 132//118
f 7//117 9//117 133//117 131//117
f 10//118 8//118 132//118 134//118
f 9//117 11//117 135//117 133//117
f 12//118 10//118 134//118 136//118
f 11//117 13//117 137//117 135//117
f 14//118 12//118 136//118 138//118
f 13//117 15//117 139//117 137//117
f 16//118 14//118 138//118 140//118
f 15//117 17//117 141//117 139//117
f 18//118 16//118 140//118 142//118
f 17//117 19//117 143//117 141//117
f 20//118 18//118 142//118 144//118
f 19//117 21//117 145//117 143//117
f 22//118 20//118 144//118 146//118
f 21//117 23//117 147//117 145//117
f 24//118 22//118 146//118 148//118
f 23//117 25//117 149//117 147//117
f 26//118 24//118 148//118 150//118
f 25//117 27//117 151//117 149//117
f 28//118 26//118 150//118 152//118
f 27//117 29//117 153//117 151//117
f 30//118 28//118 152//118 154//118
f 29//117 31//117 155//117 153//117
f 32//118 30//118 154//118 156//118
f 31//117 33//117 157//117 155//117
f 34//118 32//118 156//118 158//118
f 33//117 35//117 159//117 157//117
f 36//118 34//118 158//118 160//118
f 35//117 37//117 161//117 159//117
f 38//118 36//118 160//118 162//118
f 37//117 39//117 163//117 161//117
f 40//118 38//118 162//118 164//118
f 39//117 41//117 165//117 163//117
f 42//118 40//118 164//118 166//118
f 41//117 43//117 167//117 165//117
f 44//118 42//118 166//118 168//118
f 43//117 45//117 169//117 167//117
f 46//118 44//118 168//118 170//118
f 45//117 47//117 171//117 169//117
f 48//118 46//118 170//118 172//118
f 47//117 49//117 173//117 171//117
f 50//118 48//118 172//118 174//118
f 49//117 51//117 175//117 173//117
f 52//118 50//118 174//118 176//118
f 51//117 53//117 177//117 175//117
f 54//118 52//118 176//118 178//118
f 53//117 55//117 179//117 177//117
f 56//118 54//118 178//118 180//118
f 55//117 57//117 181//117 179//117
f 58//118 56//118 180//118 182//118
f 57//117 59//117 183//117 181//117
f 60//118 58//118 182//118 184//118
f 59//117 61//117 185//117 183//117
f 62//118 60//118 184//118 186//118
f 61//117 63//117 187//117 185//117
f 64//118 62//118 186//118 188//118
f 63//117 65//117 189//117 187//117
f 66//118 64//118 188//118 190//118
f 65//117 67//117 191//117 189//117
f 68//118 66//118 190//118 192//118
f 67//117 69//117 193//117 191//117
f 70//118 68//118 192//118 194//118
f 69//117 71//117 195//117 193//117
f 72//118 70//118 194//118 196//118
f 71//117 73//117 197//117 195//117
f 74//118 72//118 196//118 198//118
f 73//117 75//117 199//117 197//117
f 76//118 74//118 198//118 200//118
f 75//117 77//117 201//117 199//117
f 78//118 76//118 200//118 202//118
f 77//117 79//117 203//117 201//117
f 80//118 78//118 202//118 204//118
f 79//117 81//117 205//117 203//117
f 82//118 80//118 204//118 206//118
f 81//117 83//117 207//117 205//117
f 84//118 82//118 206//118 208//118
f 83//117 85//117 209//117 207//117
f 86//118 84//118 208//118 210//118
f 85//117 87//117 211//117 209//117
f 88//118 86//118 210//118 212//118
f 87//117 89//117 213//117 211//117
f 90//118 88//118 212//118 214//118
f 89//117 91//117 215//117 213//117
f 92//118 90//118 214//118 216//118
f 91//117 93//117 217//117 215//117
f 94//118 92//118 216//118 218//118
f 93//117 95//117 219//117 217//117
f 96//118 94//118 218//118 220//118
f 95//117 97//117 221//117 219//117
f 98//118 96//118 220//118 222//118
f 97//117 99//117 223//117 221//117
f 100//118 98//118 222//118 224//118
f 99//117 101//117 225//117 223//117
f 102//118 100//118 224//118 226//118
f 101//117 103//117 227//117 225//117
f 104//118 102//118 226//118 228//118
f 103//117 105//117 229//117 227//117
f 106//118 104//118 228//118 230//118
f 105//117 107//117 231//117 229//117
f 108//118 106//118 230//118 232//118
f 107//117 109//117 233//117 231//117
f 110//118 108//118 232//118 234//118
f 109//117 111//117 235//117 233//117
f 112//118 110//118 234//118 236//118
f 111//117 113//117 237//117 235//117
f 114//118 112//118 236//118 238//118
f 113//117 115//117 239//117 237//117
f 116//118 114//118 238//118 240//118
f 115//117 117//117 241//117 239//117
f 118//118 116//118 240//118 242//118
f 117//117 119//117 243//117 241//117
f 120//118 118//118 242//118 244//118
f 119//117 121//117 245//117 243//117
f 122//118 120//118 244//118 246//118
f 121//117 123//117 247//117 245//117
f 124//118 122//118 246//118 248//118
f 123//119 124//119 248//119 247//119
